<?xml version="1.0" encoding="UTF-8" standalone="no"?><!DOCTYPE svg PUBLIC "-//W3C//DTD SVG 1.1//EN" "http://www.w3.org/Graphics/SVG/1.1/DTD/svg11.dtd"><svg width="100%" height="100%" viewBox="0 0 100 100" version="1.1" xmlns="http://www.w3.org/2000/svg" xmlns:xlink="http://www.w3.org/1999/xlink" xml:space="preserve" xmlns:serif="http://www.serif.com/" style="fill-rule:evenodd;clip-rule:evenodd;stroke-linejoin:round;stroke-miterlimit:2;"><path d="M30.113,66.585c-2.198,-0 -5.151,1.377 -6.563,3.06l-22.8,27.172c-1.412,1.683 -0.77,3.06 1.427,3.06l41.478,0c18.387,0 33.292,-14.905 33.292,-33.292c0,-0.688 -0.027,-1.369 -0.068,-2.046c-3.588,1.322 -7.465,2.046 -11.511,2.046l-35.255,-0Z" style="fill:#2ae38a;fill-rule:nonzero;"/><path d="M98.66,33.293c0,-18.387 -14.906,-33.293 -33.292,-33.293l-25.957,0c-2.197,0 -5.151,1.377 -6.563,3.061l-22.799,27.171c-1.413,1.683 -0.771,3.06 1.426,3.06l32.18,0c17.7,0 32.166,13.814 33.224,31.247c12.714,-4.685 21.781,-16.906 21.781,-31.246Z" style="fill:#2ae38a;fill-rule:nonzero;"/></svg>